<svg width="16" height="16" viewBox="0 0 16 16" fill="black" xmlns="http://www.w3.org/2000/svg">
<path d="M4.15028 3.20722C3.88993 2.94688 3.46782 2.94688 3.20747 3.20722C2.94712 3.46757 2.94712 3.88968 3.20747 4.15003L7.0573 7.99985L3.20751 11.8496C2.94716 12.11 2.94716 12.5321 3.20751 12.7925C3.46786 13.0528 3.88997 13.0528 4.15032 12.7925L8.0001 8.94265L11.8499 12.7925C12.1102 13.0528 12.5324 13.0528 12.7927 12.7925C13.053 12.5321 13.053 12.11 12.7927 11.8496L8.9429 7.99985L12.7927 4.15003C13.0531 3.88968 13.0531 3.46757 12.7927 3.20722C12.5324 2.94688 12.1103 2.94688 11.8499 3.20722L8.0001 7.05705L4.15028 3.20722Z"/>
</svg>
