<svg xmlns="http://www.w3.org/2000/svg" version="1.1" xmlnsXlink="http://www.w3.org/1999/xlink" width="512" height="512" x="0" y="0" viewBox="0 0 511.999 511.999" style="enable-background:new 0 0 512 512" xmlSpace="preserve" class=""><g><path d="M350.649 396.742c-23.95 2.95-48.019-1.079-68.937-21.09-6.117-5.852-6.332-15.555-.479-21.672 5.854-6.119 15.555-6.332 21.672-.48 17.495 16.738 39.855 17.707 79.735 3.462 10.801-3.858 13.453-11.017 17.974-25.554 5.315-17.093 12.595-40.502 44.712-50.42 8.077-2.499 16.671 2.034 19.169 10.124 2.499 8.089-2.035 16.671-10.124 19.169-15.941 4.923-19.357 13.752-24.483 30.231-4.743 15.254-11.24 36.144-36.935 45.321-13.588 4.852-27.924 9.138-42.304 10.909z" style="" fill="#eda751" data-original="#eda751"></path><path d="M464.495 291.111c-2.498-8.09-11.092-12.623-19.169-10.124-6.071 1.874-11.251 4.232-15.702 6.937.835 9.035 4.322 20.63 14.312 27.264 2.756-1.968 6.137-3.583 10.435-4.91 8.089-2.497 12.622-11.078 10.124-19.167z" style="" fill="#fcd79d" data-original="#fcd79d"></path><path d="M207.172 504.5c-13.546 0-24.525-10.98-24.525-24.525 0-6.895.043-15.074.087-23.743.11-20.92.234-44.632-.198-59.568-.389-13.54 10.27-24.832 23.809-25.222 13.521-.409 24.831 10.269 25.222 23.808.454 15.773.328 39.928.217 61.239a4649.62 4649.62 0 0 0-.088 23.486c.001 13.545-10.98 24.525-24.524 24.525zM291.284 504.5c-13.546 0-24.525-10.98-24.525-24.525 0-6.826-.042-14.924-.087-23.506-.111-21.304-.237-45.451.215-61.217.39-13.541 11.73-24.213 25.221-23.81 13.54.39 24.2 11.682 23.81 25.22-.43 14.934-.307 38.637-.198 59.55.045 8.676.089 16.863.089 23.762.001 13.546-10.98 24.526-24.525 24.526zM136.089 428.053c-3.63 0-7.315-.808-10.793-2.516-12.159-5.97-17.175-20.665-11.204-32.824 11.192-22.795 24.119-73.768 25.53-84.184 1.82-13.423 14.179-22.83 27.597-21.01 13.424 1.819 22.828 14.175 21.009 27.596-2.046 15.097-16.265 71.025-30.108 99.216-4.261 8.682-12.972 13.722-22.031 13.722zM362.367 428.053c-9.061 0-17.771-5.039-22.032-13.722-13.844-28.191-28.063-84.12-30.108-99.216-1.819-13.422 7.587-25.777 21.009-27.596 13.412-1.823 25.777 7.587 27.597 21.01 1.411 10.417 14.339 61.388 25.53 84.184 5.971 12.159.954 26.854-11.204 32.824a24.443 24.443 0 0 1-10.792 2.516z" style="" fill="#eda751" data-original="#eda751"></path><path d="M206.345 371.441c-13.54.39-24.198 11.683-23.809 25.222.312 10.801.333 26.19.28 41.794 14.772 8.048 31.336 13.497 48.981 15.681.107-20.719.208-43.692-.229-58.888-.392-13.541-11.703-24.218-25.223-23.809zM292.107 371.441c-13.492-.404-24.83 10.27-25.221 23.81-.436 15.196-.335 38.17-.228 58.887 17.645-2.183 34.209-7.632 48.981-15.681-.053-15.604-.032-30.994.279-41.796.39-13.539-10.271-24.83-23.811-25.22zM358.833 308.529c-1.82-13.423-14.186-22.833-27.597-21.01-13.424 1.819-22.828 14.175-21.009 27.596 2.045 15.097 16.265 71.025 30.108 99.216a24.65 24.65 0 0 0 2.719 4.328c14.47-13.584 25.625-30.281 32.228-48.917-8.192-24.147-15.415-53.577-16.449-61.213zM167.221 287.519c-13.419-1.82-25.777 7.588-27.597 21.01-1.034 7.636-8.258 37.066-16.45 61.214 6.604 18.635 17.759 35.332 32.228 48.916a24.546 24.546 0 0 0 2.719-4.327c13.844-28.191 28.063-84.12 30.108-99.216 1.82-13.422-7.586-25.778-21.008-27.597z" style="opacity:0.2;enable-background:new ;" fill="#a35f00" data-original="#a35f00"></path><ellipse cx="249.223" cy="330.402" rx="113.117" ry="105.117" style="" fill="#fcd690" data-original="#fcd690"></ellipse><path d="M232.709 434.393c-51.693-33.938-37.688-100.541-26.897-124.066V233.31c-40.927 15.821-69.704 53.33-69.704 97.088-.001 52.839 41.957 96.565 96.601 103.995z" style="opacity:0.15;enable-background:new ;" fill="#c17a00" data-original="#c17a00"></path><path d="M180.386 157.981c22.135-18.574 36.914-49.754 5.692-95.846-31.467-46.455-78.319-58.1-114.896-53.791a22.876 22.876 0 0 0-19.197 16.108c-10.596 35.273-7.263 83.435 33.023 122.492 39.972 38.751 73.244 29.611 95.378 11.037z" style="" fill="#eda751" data-original="#eda751"></path><path d="M50.514 29.848c-8.687 34.681-3.775 79.992 34.495 117.095 34.645 33.588 64.251 31.188 85.942 17.86C156.033 63.537 90.869 36.683 50.514 29.848z" style="" fill="#ff91ab" data-original="#ff91ab" class=""></path><path d="M318.069 157.981c-22.135-18.574-36.914-49.754-5.692-95.846 31.468-46.456 78.32-58.102 114.897-53.792a22.875 22.875 0 0 1 19.197 16.108c10.596 35.273 7.263 83.435-33.023 122.492-39.972 38.752-73.245 29.612-95.379 11.038z" style="" fill="#eda751" data-original="#eda751"></path><path d="M447.941 29.848c8.686 34.681 3.775 79.992-34.495 117.095-34.645 33.588-64.251 31.188-85.942 17.86 14.918-101.266 80.082-128.12 120.437-134.955z" style="" fill="#ff91ab" data-original="#ff91ab" class=""></path><path d="M441.814 186.015c0 88.056-86.224 126.623-192.586 126.623S56.641 274.07 56.641 186.015 142.865 26.577 249.227 26.577s192.587 71.382 192.587 159.438z" style="" fill="#ffdc9c" data-original="#ffdc9c" class=""></path><path d="M146.396 51.193C92.46 79.448 56.641 129.266 56.641 186.016c0 75.695 63.716 114.82 149.17 124.313-122.665-73.273-106.667-171.83-59.415-259.136z" style="opacity:0.15;enable-background:new ;" fill="#c17a00" data-original="#c17a00"></path><path d="M353.149 217.682c9.06-1.198 30.007.334 37.926 2.313a7.506 7.506 0 0 0 1.825.226 7.501 7.501 0 0 0 1.814-14.778c-9.581-2.396-32.409-4.101-43.529-2.632a7.501 7.501 0 0 0-6.453 8.419c.542 4.106 4.326 6.994 8.417 6.452zm-9.988 25.799c8.829 2.344 27.617 11.742 34.185 16.59a7.467 7.467 0 0 0 4.448 1.466 7.5 7.5 0 0 0 4.46-13.534c-7.945-5.865-28.402-16.142-39.243-19.02a7.5 7.5 0 1 0-3.85 14.498zm-19.751-47.726a7.5 7.5 0 0 0 7.5-7.5v-12.314a7.5 7.5 0 0 0-7.5-7.5 7.5 7.5 0 0 0-7.5 7.5v12.314a7.5 7.5 0 0 0 7.5 7.5zm-171.966 33.228c-10.842 2.878-31.298 13.155-39.242 19.02a7.5 7.5 0 1 0 8.908 12.067c6.566-4.847 25.354-14.246 34.184-16.589a7.5 7.5 0 0 0 5.324-9.173 7.499 7.499 0 0 0-9.174-5.325zm320.217 59.915a22.681 22.681 0 0 0-11.157-13.452 22.658 22.658 0 0 0-17.391-1.625c-35.892 11.082-44.178 37.726-49.661 55.358-4.524 14.549-6.297 18.206-13.335 20.719-.989.353-1.969.696-2.943 1.032a590.545 590.545 0 0 1-7.621-28.084 105.388 105.388 0 0 0-4.045-22.37c8.487-3.456 16.415-7.348 23.72-11.676 39.307-23.288 60.083-58.831 60.083-102.785 0-19.529-3.983-38.531-11.622-56.371 21.192-31.623 27.032-70.489 15.961-107.35A30.318 30.318 0 0 0 428.149.896c-36.739-4.328-72.9 7.175-99.998 31.622-24.613-8.807-51.347-13.442-78.925-13.442s-54.312 4.635-78.925 13.442C143.205 8.07 107.047-3.434 70.304.895a30.315 30.315 0 0 0-25.5 21.398c-11.073 36.861-5.234 75.727 15.96 107.35-7.639 17.839-11.622 36.841-11.622 56.371 0 52.856 29.368 92.443 83.787 114.518a105.454 105.454 0 0 0-4.028 22.313c-5.509 22.558-14.264 51.74-21.54 66.561-3.771 7.679-4.325 16.366-1.562 24.461 2.764 8.096 8.515 14.631 16.192 18.401a31.728 31.728 0 0 0 14.099 3.284c12.316 0 23.338-6.865 28.765-17.916a152.11 152.11 0 0 0 2.261-4.831 119.713 119.713 0 0 0 8.212 6.53c.038 11.774-.031 25.019-.092 36.856l-.008 1.619c-.041 8.082-.08 15.688-.08 22.162 0 17.659 14.367 32.025 32.025 32.025s32.025-14.367 32.025-32.025c0-6.808.042-14.886.088-23.447l.001-.293c.023-4.446.046-9.015.065-13.601 3.259.248 6.552.38 9.878.38 3.326 0 6.619-.132 9.878-.38.019 4.587.042 9.155.065 13.601l.001.294c.046 8.56.088 16.639.088 23.446 0 17.659 14.367 32.025 32.025 32.025a31.992 31.992 0 0 0 30.372-21.85 7.5 7.5 0 1 0-14.222-4.764 17.01 17.01 0 0 1-16.15 11.614c-9.389 0-17.026-7.638-17.026-17.026 0-6.831-.042-14.937-.088-23.524l-.002-.293c-.026-5.078-.052-10.314-.072-15.557a125.141 125.141 0 0 0 34.022-11.955c.006 7.973.045 16.266.086 24.288a7.5 7.5 0 0 0 7.499 7.461h.04a7.5 7.5 0 0 0 7.461-7.538c-.057-11.195-.11-22.914-.075-33.52a119.422 119.422 0 0 0 8.212-6.531 151.272 151.272 0 0 0 2.26 4.831c5.427 11.051 16.449 17.916 28.765 17.916 4.918 0 9.661-1.105 14.098-3.284 7.679-3.77 13.43-10.306 16.193-18.401 2.247-6.581 2.3-13.553.216-20.055.854-.298 1.72-.603 2.604-.919 29.22-10.436 36.654-34.338 41.574-50.157 4.923-15.832 7.251-21.499 19.534-25.292a22.684 22.684 0 0 0 13.451-11.151 22.678 22.678 0 0 0 1.622-17.392zm-41.847-175.014c-9.777-17.021-23.086-32.695-39.625-46.387a195.989 195.989 0 0 0-3.551-2.87c18.736-15.105 39.275-22.454 55.511-26.014 3.255 17.883 4.119 46.266-12.335 75.271zm-3.419-98.092a15.323 15.323 0 0 1 11.884 8.315C419.487 28.31 395.6 37.13 374.111 55.54c-9.512-6.359-19.62-11.938-30.216-16.694 23.138-18.225 52.594-26.578 82.5-23.054zm-354.335 0c29.906-3.52 59.361 4.829 82.499 23.055-10.595 4.755-20.702 10.335-30.214 16.693-21.489-18.41-45.377-27.23-64.167-31.432a15.314 15.314 0 0 1 11.882-8.316zM56.307 38.614c16.236 3.56 36.774 10.91 55.51 26.014-1.195.943-2.38 1.9-3.551 2.87-16.538 13.692-29.848 29.367-39.625 46.386-16.454-29.005-15.59-57.388-12.334-75.27zm95.082 372.413c-2.886 5.876-8.748 9.527-15.301 9.527-2.605 0-5.124-.588-7.486-1.749a16.909 16.909 0 0 1-8.609-9.782 16.914 16.914 0 0 1 .831-13.005c4.236-8.628 8.667-20.933 12.695-33.797 4.578 14.486 12.197 27.764 22.166 39.19-1.476 3.58-2.915 6.805-4.296 9.616zm72.898 45.13-.002.292c-.046 8.59-.088 16.695-.088 23.526 0 9.388-7.638 17.026-17.026 17.026s-17.026-7.638-17.026-17.026c0-6.453.039-14.033.079-22.085l.009-1.619c.046-8.818.095-18.415.102-27.625a125.148 125.148 0 0 0 34.023 11.955c-.019 5.242-.046 10.478-.071 15.556zm24.94-28.144c-58.24 0-105.62-43.79-105.62-97.615a90.677 90.677 0 0 1 3.436-24.722c9.966 3.255 20.64 5.998 32.014 8.197a7.495 7.495 0 0 0 8.787-5.94 7.5 7.5 0 0 0-5.939-8.788c-13.264-2.565-25.485-5.9-36.655-9.969-.116-.05-.228-.105-.347-.15a7.79 7.79 0 0 0-.692-.218c-19.168-7.101-35.155-16.413-47.766-27.851-21.435-19.444-32.304-44.659-32.304-74.943 0-83.78 83.029-151.939 185.086-151.939s185.086 68.159 185.086 151.939c0 38.91-17.741 69.149-52.73 89.88-8.42 4.989-17.764 9.358-27.929 13.101-.034.012-.069.02-.103.033-.027.01-.051.023-.078.033-28.785 10.568-64.19 16.077-104.247 16.077-11.232 0-22.28-.444-32.841-1.32a7.49 7.49 0 0 0-8.095 6.854 7.5 7.5 0 0 0 6.855 8.094c10.971.91 22.437 1.372 34.081 1.372 38.517 0 73.108-4.957 102.174-14.497a90.673 90.673 0 0 1 3.446 24.757c.002 53.825-47.379 97.615-105.619 97.615zm129.234-18.99a16.915 16.915 0 0 1-8.61 9.783 16.84 16.84 0 0 1-7.485 1.748c-6.553 0-12.415-3.651-15.301-9.527-1.378-2.805-2.817-6.031-4.297-9.616 9.97-11.426 17.588-24.704 22.166-39.189 4.029 12.864 8.459 25.169 12.695 33.797a16.907 16.907 0 0 1 .832 13.004zm78.311-109.733a7.784 7.784 0 0 1-4.613 3.825c-20.459 6.317-24.616 19.687-29.432 35.17-4.513 14.51-10.129 32.567-32.295 40.484-1.18.421-2.319.819-3.442 1.208-1.757-4.443-3.546-9.437-5.311-14.735 1.153-.396 2.313-.799 3.485-1.218 14.807-5.288 18.252-16.366 22.613-30.392 5.089-16.364 11.422-36.728 39.767-45.48a7.755 7.755 0 0 1 5.958.559 7.78 7.78 0 0 1 3.828 4.614 7.778 7.778 0 0 1-.558 5.965zM175.046 168.442a7.5 7.5 0 0 0-7.5 7.5v12.314c0 4.142 3.357 7.5 7.5 7.5s7.5-3.358 7.5-7.5v-12.314a7.5 7.5 0 0 0-7.5-7.5zm-29.74 49.24a7.501 7.501 0 0 0 1.965-14.872c-11.118-1.468-33.947.237-43.528 2.632a7.5 7.5 0 1 0 3.637 14.552c7.92-1.979 28.869-3.509 37.926-2.312zm79.437-14.317a7.476 7.476 0 0 0 4.925 1.846 7.48 7.48 0 0 0 5.657-2.573c3.51-4.027 8.577-6.337 13.903-6.337s10.395 2.31 13.904 6.338a7.5 7.5 0 0 0 11.309-9.855 33.443 33.443 0 0 0-25.212-11.482 33.437 33.437 0 0 0-25.211 11.483 7.496 7.496 0 0 0 .725 10.58z" fill="#000000" data-original="#000000" class=""></path></g></svg>