<svg xmlns="http://www.w3.org/2000/svg" version="1.1" xmlnsXlink="http://www.w3.org/1999/xlink" width="512" height="512" x="0" y="0" viewBox="0 0 512 512" style="enable-background:new 0 0 512 512" xmlSpace="preserve" class=""><g><path d="M172.877 419.6c-8.179.001-16.676-1.698-25.576-5.089-41.622-15.855-78.379-17.88-98.325-5.412-7.021 4.389-16.275 2.255-20.665-4.769-4.389-7.023-2.255-16.275 4.769-20.665 28.277-17.674 73.801-16.646 124.897 2.818 25.08 9.554 37.316-3.644 60.456-31.98l.852-1.043c5.24-6.414 14.687-7.366 21.1-2.126 6.414 5.24 7.366 14.687 2.126 21.1l-.848 1.038c-11.666 14.286-22.684 27.778-36.903 36.634-10.171 6.335-20.731 9.494-31.883 9.494z" style="" fill="#eda751" data-original="#eda751"></path><path d="M240.384 351.335c-6.414-5.239-15.861-4.287-21.1 2.126l-.852 1.043c-19.629 24.036-31.414 37.172-49.846 34.776-1.02 8.651-.77 21.712 3.736 30.304.184.002.371.014.555.014 11.153-.001 21.712-3.16 31.881-9.492 14.219-8.856 25.237-22.348 36.903-36.634l.848-1.038c5.24-6.411 4.288-15.859-2.125-21.099z" style="opacity:0.2;enable-background:new ;" fill="#a35f00" data-original="#a35f00"></path><path d="M56.347 374.162c-8.644 2.091-16.46 5.25-23.267 9.505-7.024 4.39-9.158 13.642-4.769 20.665 4.39 7.024 13.644 9.158 20.665 4.769 4.917-3.074 10.86-5.262 17.642-6.585-.037-12.75-4.399-22.158-10.271-28.354z" style="" fill="#fcd79d" data-original="#fcd79d"></path><path d="M383.896 491.878c-2.654 0-5.353-.443-7.997-1.378-12.494-4.417-19.041-18.125-14.625-30.618 4.158-11.762.622-28.329-8.226-38.538-4.792-5.529-9.865-7.803-15.078-6.761-12.987 2.597-25.632-5.831-28.229-18.827-2.597-12.995 5.833-25.632 18.827-28.229 22.397-4.473 44.534 3.686 60.744 22.388 20.221 23.33 27.134 57.875 17.206 85.96-3.483 9.849-12.739 16.003-22.622 16.003zM229.108 504.5c-7.875 0-15.588-3.872-20.178-10.979-29.438-45.582-9.094-77.767 1.836-95.059 2.03-3.211 3.947-6.244 5.158-8.666 5.927-11.852 20.339-16.654 32.19-10.73 11.852 5.926 16.656 20.338 10.73 32.19-2.286 4.571-4.945 8.777-7.516 12.846-9.915 15.686-14.892 23.559-2.088 43.385 7.189 11.132 3.993 25.983-7.138 33.172a23.878 23.878 0 0 1-12.994 3.841zM176.162 355.605c-16.706 1.117-34.831-1.576-53.093-8.051-26.133-9.265-48.95-25.241-61.037-42.735-7.532-10.903-4.8-25.846 6.103-33.378 10.906-7.533 25.847-4.799 33.378 6.103 12.474 18.055 57.578 38.245 85.472 27.221 12.32-4.876 26.261 1.167 31.134 13.49 4.873 12.323-1.167 26.261-13.49 31.134-8.777 3.47-18.363 5.54-28.467 6.216z" style="" fill="#eda751" data-original="#eda751"></path><path d="M186.984 304.765c-9.039 3.572-19.885 3.853-30.841 2.005a115.31 115.31 0 0 0-.904 48.307c7.15.797 14.154.981 20.923.528 10.104-.675 19.691-2.746 28.466-6.217 12.323-4.873 18.363-18.812 13.49-31.134-4.871-12.322-18.814-18.365-31.134-13.489zM248.115 379.066c-11.852-5.924-26.263-1.121-32.19 10.73-1.211 2.422-3.128 5.455-5.158 8.666-4.188 6.626-9.757 15.442-13.379 26.357 12.785 10.568 27.782 18.824 44.252 24.054-.665-8.38 3.567-15.088 9.689-24.771 2.572-4.068 5.23-8.275 7.516-12.846 5.926-11.852 1.122-26.263-10.73-32.19zM394.386 396.402a83.786 83.786 0 0 0-5.075-6.487c-16.21-18.703-38.346-26.861-60.744-22.388-12.994 2.597-21.422 15.236-18.826 28.229 2.597 12.996 15.243 21.424 28.229 18.827 5.214-1.042 10.286 1.232 15.078 6.761 2.655 3.064 4.821 6.706 6.455 10.614 13.979-9.55 25.87-21.642 34.883-35.556z" style="opacity:0.2;enable-background:new ;" fill="#a35f00" data-original="#a35f00"></path><ellipse cx="283.194" cy="333.022" rx="110.667" ry="102.828" style="" fill="#fcd690" data-original="#fcd690"></ellipse><path d="M235.817 303.17c-19.26-2.427-37.321-6.434-53.671-12.102-6.172 12.814-9.619 27.008-9.619 41.956 0 56.793 49.546 102.833 110.664 102.833 1.25 0 2.493-.026 3.733-.065-82.857-42.851-57.841-102.833-51.107-132.622z" style="opacity:0.15;enable-background:new ;" fill="#c17a00" data-original="#c17a00"></path><path d="M215.846 154.713c21.654-18.171 36.113-48.673 5.569-93.765-30.786-45.447-76.62-56.838-112.403-52.623a22.377 22.377 0 0 0-18.78 15.758c-10.365 34.507-7.105 81.623 32.306 119.833 39.103 37.909 71.653 28.968 93.308 10.797z" style="" fill="#eda751" data-original="#eda751"></path><path d="M88.793 29.363c-8.498 33.928-3.693 78.255 33.746 114.552 33.893 32.859 62.857 30.511 84.076 17.473C192.021 62.319 128.272 36.049 88.793 29.363z" style="" fill="#ff91ab" data-original="#ff91ab"></path><path d="M350.538 154.713c-21.654-18.171-36.112-48.673-5.569-93.765 30.785-45.447 76.62-56.839 112.403-52.624a22.377 22.377 0 0 1 18.78 15.758c10.366 34.507 7.105 81.623-32.306 119.833-39.104 37.91-71.654 28.969-93.308 10.798z" style="" fill="#eda751" data-original="#eda751"></path><path d="M477.592 29.363c8.498 33.928 3.693 78.255-33.746 114.552-33.892 32.859-62.857 30.511-84.076 17.473 14.593-99.069 78.342-125.339 117.822-132.025z" style="" fill="#ff91ab" data-original="#ff91ab"></path><path d="M471.597 182.138c0 86.144-84.352 123.874-188.405 123.874S94.788 268.281 94.788 182.138 179.139 26.161 283.192 26.161s188.405 69.833 188.405 155.977z" style="" fill="#ffdc9c" data-original="#ffdc9c" class=""></path><path d="M94.788 182.138c0 72.597 59.909 110.808 141.03 121.031-111.305-59.681-100.467-186.173-51.315-253.913-53.828 27.459-89.715 76.698-89.715 132.882z" style="opacity:0.15;enable-background:new ;" fill="#c17a00" data-original="#c17a00"></path><ellipse cx="190.736" cy="185.775" rx="34.109" ry="27.169" style="" fill="#ff91ab" data-original="#ff91ab"></ellipse><ellipse cx="375.642" cy="185.775" rx="34.109" ry="27.169" style="" fill="#ff91ab" data-original="#ff91ab"></ellipse><path d="M282.267 207.089c-10.291-.485-18.208-9.349-18.208-19.652v-15.512c0-2.862 1.284-5.595 3.54-7.357 4.302-3.359 9.713-5.363 15.594-5.363s11.292 2.003 15.594 5.363c2.256 1.762 3.54 4.495 3.54 7.357v16.053c-.002 10.873-9.073 19.628-20.06 19.111z" style="" fill="#ff91ab" data-original="#ff91ab"></path><path d="M465.022 204.306c-13.145-1.684-25.161 7.613-26.841 20.757-3.605 28.201-31.463 54.01-53.926 66.002l-.003.002c6.17 12.813 9.605 27.011 9.605 41.956 0 1.428-.04 2.848-.102 4.262 35.623-15.429 85.298-53.513 92.025-106.137 1.679-13.144-7.613-25.162-20.758-26.842z" style="" fill="#eda751" data-original="#eda751"></path><path d="M411.668 328.188c-.226-24.994-9.71-35.79-3.138-54.29-7.907 7.085-16.42 12.973-24.275 17.167l-.003.002c6.17 12.813 9.605 27.011 9.605 41.956 0 1.428-.04 2.848-.102 4.262 5.689-2.464 11.738-5.509 17.913-9.097z" style="opacity:0.2;enable-background:new ;" fill="#a35f00" data-original="#a35f00"></path><path d="M210.622 132.658c-13.006 0-23.586 10.581-23.586 23.586a7.5 7.5 0 0 0 15 0c0-4.735 3.852-8.587 8.587-8.587 4.735 0 8.587 3.852 8.587 8.587a7.5 7.5 0 0 0 15 0c-.003-13.005-10.583-23.586-23.588-23.586zm-23.132 65.7c-10.621 2.819-30.662 12.887-38.446 18.633a7.5 7.5 0 0 0 4.46 13.534 7.467 7.467 0 0 0 4.448-1.466c6.414-4.735 24.764-13.915 33.387-16.204a7.501 7.501 0 0 0 5.325-9.173 7.503 7.503 0 0 0-9.174-5.324zm299.402 10.482a31.438 31.438 0 0 0-9.132-8.004c.887-6.046 1.335-12.311 1.335-18.698 0-19.098-3.89-37.681-11.348-55.129 20.721-30.964 26.423-69.004 15.586-105.084A29.82 29.82 0 0 0 458.249.876c-35.957-4.237-71.347 7.008-97.883 30.91-24.071-8.6-50.21-13.127-77.174-13.127s-53.104 4.526-77.174 13.127C179.481 7.883 144.088-3.361 108.134.875a29.826 29.826 0 0 0-25.084 21.05c-10.838 36.079-5.134 74.119 15.586 105.084-7.459 17.448-11.348 36.031-11.348 55.129 0 52.546 29.779 91.817 84.802 113.243a105.145 105.145 0 0 0-1.801 5.003c-24.865.712-54.373-15.187-62.606-27.103-9.87-14.286-29.522-17.88-43.812-8.01-14.287 9.871-17.88 29.524-8.01 43.812 12.95 18.745 37.137 35.769 64.7 45.541 16.354 5.798 32.47 8.724 48.019 8.723.328 0 .653-.011.98-.014a105.227 105.227 0 0 0 7.558 18.275c-4.856 1.035-10.036.323-16.474-2.13-53.312-20.308-101.256-21.099-131.541-2.169a22.348 22.348 0 0 0-9.998 14.018 22.351 22.351 0 0 0 2.843 16.981 22.345 22.345 0 0 0 14.02 9.998 22.357 22.357 0 0 0 16.98-2.844c17.697-11.062 52.827-8.74 91.681 6.061 9.72 3.703 19.22 5.579 28.238 5.579h.008c5.611 0 11.142-.736 16.562-2.178-5.115 17.478-6.164 42.697 13.193 72.667 5.828 9.023 15.726 14.411 26.477 14.411a31.387 31.387 0 0 0 17.064-5.041c7.067-4.564 11.933-11.607 13.703-19.831 1.769-8.224.23-16.645-4.334-23.71-7.671-11.878-7.662-17.522-4.432-24.197a125.696 125.696 0 0 0 32.083 4.135c23.488 0 45.396-6.434 63.814-17.511.126.138.251.265.376.41 7.1 8.192 10.097 21.864 6.822 31.127-5.788 16.372 2.824 34.4 19.196 40.188a31.394 31.394 0 0 0 10.498 1.808c13.319 0 25.25-8.44 29.691-21.001.414-1.17.809-2.374 1.173-3.577a7.501 7.501 0 0 0-14.357-4.347c-.298.983-.62 1.966-.958 2.922-2.327 6.581-8.576 11.003-15.55 11.003-1.866 0-3.715-.319-5.498-.95-8.575-3.031-13.084-12.473-10.053-21.047 4.957-14.022 1.176-32.793-8.951-45.107 8.785-6.938 16.473-15.048 22.786-24.07.493.535.985 1.072 1.463 1.623 10.482 12.094 17.332 27.881 19.288 44.456a7.5 7.5 0 0 0 14.896-1.757c-2.305-19.529-10.419-38.181-22.848-52.522a85.35 85.35 0 0 0-4.828-5.116c5.846-11.585 9.595-24.265 10.787-37.615 19.845-9.267 39.686-23.249 55.015-38.851 21.17-21.546 34.056-46.209 37.266-71.322 1.066-8.348-1.181-16.607-6.327-23.262zM166.167 348.305c-13.064-.317-26.928-2.974-40.591-7.819-24.701-8.757-46.149-23.684-57.373-39.93-5.169-7.483-3.287-17.776 4.194-22.943 7.485-5.169 17.778-3.287 22.945 4.194 11.041 15.981 43.148 32.573 71.191 33.52a103.826 103.826 0 0 0-.366 32.978zm293.69-237.053c-9.561-16.574-22.543-31.84-38.66-45.183a194.113 194.113 0 0 0-3.317-2.681c18.199-14.62 38.121-21.773 53.913-25.256 3.147 17.427 3.946 44.958-11.936 73.12zm-3.363-95.479a14.82 14.82 0 0 1 11.403 7.861c-18.345 4.128-41.602 12.748-62.547 30.658-9.21-6.148-18.991-11.55-29.237-16.165 22.57-17.69 51.262-25.786 80.381-22.354zm-346.605 0c29.12-3.432 57.811 4.664 80.381 22.354-10.247 4.615-20.028 10.016-29.237 16.165-20.945-17.91-44.202-26.53-62.547-30.658a14.825 14.825 0 0 1 11.403-7.861zM94.591 38.132c15.793 3.483 35.715 10.637 53.914 25.256a185.82 185.82 0 0 0-3.318 2.681c-16.117 13.343-29.099 28.609-38.66 45.183-15.882-28.162-15.083-55.693-11.936-73.12zM172.876 412.1h-.006c-7.188 0-14.893-1.547-22.899-4.597-44.459-16.935-82.72-18.671-104.971-4.763a7.443 7.443 0 0 1-5.657.947 7.447 7.447 0 0 1-4.672-3.332 7.448 7.448 0 0 1-.947-5.658 7.443 7.443 0 0 1 3.332-4.671c26.267-16.418 69.369-15.154 118.251 3.467 11.167 4.254 20.875 4.702 30.028 1.307a112.768 112.768 0 0 0 10.03 11.952c-7.286 3.588-14.683 5.348-22.489 5.348zm72.334 71.873a16.39 16.39 0 0 1-7.176 10.386 16.42 16.42 0 0 1-8.926 2.641 16.452 16.452 0 0 1-13.877-7.548c-19.695-30.494-15.456-53.709-7.094-71.273 8.638 6.65 18.303 12.175 28.732 16.341-4.603 10.893-4.072 21.331 6.072 37.037a16.38 16.38 0 0 1 2.269 12.416zm1.027-172.12c11.845 1.101 24.277 1.659 36.954 1.659 36.395 0 68.951-4.444 96.92-13.2a88.275 88.275 0 0 1 6.245 32.711c0 52.567-46.28 95.333-103.165 95.333s-103.165-42.766-103.165-95.333a88.395 88.395 0 0 1 3.157-23.484l.001-.003a89.157 89.157 0 0 1 3.079-9.206c7.632 2.379 15.673 4.457 24.121 6.219.516.108 1.031.16 1.539.16a7.503 7.503 0 0 0 7.334-5.97 7.499 7.499 0 0 0-5.811-8.873c-10.214-2.131-19.763-4.747-28.661-7.814-.131-.05-.264-.092-.396-.134-21.07-7.31-38.396-17.221-51.689-29.63-20.182-18.841-30.414-43.116-30.414-72.151 0-81.871 81.153-148.477 180.905-148.477s180.905 66.606 180.905 148.477c0 4.949-.308 9.8-.905 14.501-7.381-.298-14.563 1.979-20.478 6.552-6.654 5.146-10.906 12.577-11.973 20.921-3.006 23.513-27.084 47.905-49.505 60.051-27.7 9.519-60.679 14.35-98.045 14.35-12.216 0-24.182-.537-35.567-1.594-4.115-.38-7.778 2.65-8.162 6.774a7.503 7.503 0 0 0 6.776 8.161zm232.103-81.657c-5.928 46.379-47.486 79.564-77.265 95.249a102.953 102.953 0 0 0-7.252-31.242c10.91-6.696 21.608-15.583 30.063-25.072 12.391-13.907 19.906-28.816 21.733-43.116a16.392 16.392 0 0 1 6.271-10.958 16.374 16.374 0 0 1 12.181-3.312c1.054.135 2.078.371 3.067.694.038.012.078.022.116.033a16.38 16.38 0 0 1 7.774 5.543 16.393 16.393 0 0 1 3.312 12.181zm-61-13.205c-7.783-5.746-27.825-15.813-38.446-18.633a7.5 7.5 0 1 0-3.848 14.498c8.623 2.289 26.973 11.469 33.387 16.204a7.467 7.467 0 0 0 4.448 1.466 7.491 7.491 0 0 0 6.04-3.046 7.502 7.502 0 0 0-1.581-10.489zm-77.664-53.246a7.5 7.5 0 0 0 7.5-7.5c0-4.735 3.853-8.587 8.587-8.587 4.735 0 8.587 3.852 8.587 8.587a7.5 7.5 0 0 0 15 0c0-13.006-10.581-23.586-23.586-23.586s-23.586 10.581-23.586 23.586a7.497 7.497 0 0 0 7.498 7.5zm36.784 17.421c.543 4.107 4.317 6.998 8.418 6.453 8.846-1.169 29.308.327 37.042 2.26a7.5 7.5 0 0 0 1.825.226 7.503 7.503 0 0 0 7.27-5.683 7.5 7.5 0 0 0-5.457-9.095c-9.387-2.347-31.753-4.02-42.645-2.579a7.503 7.503 0 0 0-6.453 8.418zm-194.955 6.453a7.5 7.5 0 0 0 1.965-14.871c-10.894-1.438-33.259.232-42.645 2.579a7.5 7.5 0 1 0 3.638 14.552c7.734-1.933 28.199-3.43 37.042-2.26zm100.409 26.961c.435.021.867.031 1.299.031 6.879 0 13.357-2.587 18.361-7.362a26.757 26.757 0 0 0 8.251-19.273v-16.053c0-5.167-2.401-10.127-6.424-13.269-5.824-4.547-12.812-6.951-20.21-6.951-7.397 0-14.386 2.404-20.208 6.951-4.023 3.141-6.424 8.101-6.424 13.269v15.513c0 14.552 11.137 26.474 25.355 27.144zm-10.356-42.655c0-.585.245-1.125.655-1.445 3.162-2.469 6.958-3.774 10.978-3.774s7.816 1.305 10.978 3.773c.411.321.656.861.656 1.446v16.053c0 3.212-1.28 6.201-3.605 8.42-2.323 2.215-5.377 3.352-8.6 3.201-6.1-.288-11.062-5.742-11.062-12.16v-15.514z" fill="#000000" data-original="#000000" class=""></path></g></svg>